<?xml version="1.0" encoding="UTF-8"?>
<svg id="Calque_1" data-name="Calque 1" xmlns="http://www.w3.org/2000/svg" viewBox="0 0 748.4 519.1">
  <defs>
    <style>
      .cls-1 {
        fill: #ff5c35;
      }
    </style>
  </defs>
  <path class="cls-1" d="M539.3,257.9c21.6-6.6,47.6-22.1,71.1-22.6,26.4-.6,34.5,35.9,42.9,56.8l14.6,46,34.1,99.3,18.3,43c5.1,11.9,17,30.1,28.1,37.6h-118c-9.3,0-17.7-1.4-26.3-3.9-24.9-7.1-30.3-28.6-37-50.3l-20.9-67.8c-4.1-13.4-9.8-25.6-16.3-38-13-24.7-31.3-50.5-55.8-64.5-18.6-10.6-40.7-13-60.4-4.1-11.4,5.2-19.9,15.5-21.5,27.9-3.7,28.4,17,47.7,39,62.3l18.4,12.3c31,20.7,76.4,43.7,80.2,83,1.5,15.5-21.3,34.3,2.2,40,21.4,5.2,12.4,3.8-51.6,3l-183.6.3c8.4-9.3,58.9-19.8,61-31.7l2.3-26.3V58.3c-.5-22.4-47.6-41.4-63.2-58L490.3,0c7.9,0,15.2,1.9,22.3,4.5,15.5,5.8,25.4,19.5,26.9,36,2.8,30.5-11.5,58-32.5,79.7-11.6,12-24.3,22.2-38.1,31.8l-43.4,30.5c-9,6.3-16.9,13.4-23.8,21.7-5.5,6.6-9.1,14.2-9.5,22.6-.4,9.7,5.8,16.9,15.8,16.9,16.2,0,40.6-13.1,55.5-22.6,32.6-20.5,62-45.2,87.3-74.3,20.7-23.8,41.3-55.1,45.6-86.5,1.6-12.1,1.1-24.1-1.7-35.9-2.2-9-6.8-16.6-11.7-24.5h110.9c9.2.1,17.3,5,23.6,11,8.8,8.4,13.8,20,14.6,32.3,1.7,24.5-5.4,48.2-19.2,68.3-18.1,26.3-45.8,45.7-73.8,60.6s-38.3,18.6-58.5,26.3l-61.5,23.3c-12.1,4.6-23.3,9.6-34.4,15.9-10.2,5.8-46.8,12.2-42.8,22.5,3.7,9.6,58.3,9.7,69.8,6.2l27.7-8.5Z"/>
  <path class="cls-1" d="M208.3,258.2c-21.5-6.6-47.4-22-70.9-22.5-26.3-.6-34.3,35.8-42.7,56.6l-14.6,45.9-33.9,99.1-18.2,42.9c-5,11.9-16.9,30-28,37.5h117.5c9.3,0,17.7-1.4,26.2-3.9,24.8-7.1,30.2-28.6,36.8-50.2l20.8-67.6c4.1-13.4,9.7-25.5,16.2-37.9,13-24.6,31.2-50.4,55.5-64.4,18.5-10.6,40.6-12.9,60.2-4.1,11.4,5.1,19.8,15.5,21.4,27.8,3.7,28.3-17,47.6-38.9,62.2l-18.4,12.2c-30.9,20.6-76.2,43.6-79.9,82.8-1.5,15.5,21.2,34.3-2.1,39.9s-12.4,4.8,51.3,4l182.9-.7c-8.3-9.3-58.6-19.8-60.7-31.6l-2.3-26.3V59.1c.5-22.3,47.4-41.4,63-57.9l-193-1.2c-7.9,0-14.9,2.8-21.9,5.4-15.4,5.8-25.3,19.5-26.8,36-2.8,30.4,11.4,57.9,32.4,79.6,11.6,12,24.2,22.1,37.9,31.7l43.2,30.4c8.9,6.3,16.8,13.4,23.7,21.6,5.5,6.6,9.1,14.2,9.4,22.6.4,9.7-5.8,16.9-15.7,16.9-16.1,0-40.4-13.1-55.3-22.5-32.5-20.5-61.7-45.2-87-74.2s-41.2-55-45.4-86.3c-1.6-12-1.1-24.1,1.7-35.8,2.1-9,6.8-16.6,11.7-24.5H54.3c-9.1.1-17.2,5-23.6,11-8.8,8.4-13.7,19.9-14.6,32.3-1.7,24.4,5.4,48.1,19.2,68.2,18,26.3,45.6,45.6,73.6,60.4s38.1,18.5,58.3,26.2l61.3,23.3c12,4.6,23.2,9.5,34.3,15.8,10.2,5.8,46.7,12.2,42.7,22.4-3.7,9.6-58.1,9.7-69.6,6.2l-27.6-8.4Z"/>
</svg>